<svg width="36" height="37" viewBox="0 0 36 37" fill="none" xmlns="http://www.w3.org/2000/svg">
<path fill-rule="evenodd" clip-rule="evenodd" d="M27.75 2.375C28.3713 2.375 28.875 2.87868 28.875 3.5V7.625H33C33.6213 7.625 34.125 8.12868 34.125 8.75C34.125 9.37132 33.6213 9.875 33 9.875H28.875V14C28.875 14.6213 28.3713 15.125 27.75 15.125C27.1287 15.125 26.625 14.6213 26.625 14V9.875H22.5C21.8787 9.875 21.375 9.37132 21.375 8.75C21.375 8.12868 21.8787 7.625 22.5 7.625H26.625V3.5C26.625 2.87868 27.1287 2.375 27.75 2.375Z" fill="#D0D03D"/>
<path fill-rule="evenodd" clip-rule="evenodd" d="M18 2.375H17.9139C14.4513 2.37498 11.7378 2.37497 9.62056 2.65962C7.45345 2.95098 5.74342 3.55899 4.4012 4.9012C3.05899 6.24342 2.45098 7.95345 2.15962 10.1206C1.87497 12.2378 1.87498 14.9513 1.875 18.4139V18.5861C1.87498 22.0487 1.87497 24.7622 2.15962 26.8794C2.45098 29.0465 3.05899 30.7566 4.4012 32.0988C5.74342 33.441 7.45345 34.049 9.62056 34.3404C11.7378 34.625 14.4513 34.625 17.9139 34.625H18.0861C21.5487 34.625 24.2622 34.625 26.3794 34.3404C28.5465 34.049 30.2566 33.441 31.5988 32.0988C32.941 30.7566 33.549 29.0465 33.8404 26.8794C34.125 24.7622 34.125 22.0487 34.125 18.5861V18.5C34.125 17.8787 33.6213 17.375 33 17.375C32.3787 17.375 31.875 17.8787 31.875 18.5C31.875 22.0673 31.8726 24.6297 31.6104 26.5796C31.6001 26.6566 31.5894 26.7323 31.5783 26.8068L27.4173 23.0619C25.4682 21.3076 22.5655 21.133 20.42 22.6407L19.9727 22.9551C19.2273 23.479 18.2131 23.3912 17.5688 22.7469L11.1342 16.3123C9.43111 14.6092 6.6992 14.5182 4.88657 16.1042L4.12646 16.7693C4.13329 14.0809 4.17186 12.0395 4.38956 10.4204C4.64737 8.50276 5.13771 7.34668 5.99219 6.49219C6.84668 5.63771 8.00276 5.14737 9.92037 4.88956C11.8703 4.62739 14.4327 4.625 18 4.625C18.6213 4.625 19.125 4.12132 19.125 3.5C19.125 2.87868 18.6213 2.375 18 2.375ZM4.38956 26.5796C4.64737 28.4972 5.13771 29.6533 5.99219 30.5078C6.84668 31.3623 8.00276 31.8526 9.92037 32.1104C11.8703 32.3726 14.4327 32.375 18 32.375C21.5673 32.375 24.1297 32.3726 26.0796 32.1104C27.9972 31.8526 29.1533 31.3623 30.0078 30.5078C30.3731 30.1425 30.6719 29.7221 30.9143 29.2106C30.856 29.1749 30.8001 29.1334 30.7474 29.086L25.9121 24.7343C24.7426 23.6817 23.001 23.5769 21.7138 24.4816L21.2665 24.796C19.6264 25.9485 17.3952 25.7553 15.9778 24.3379L9.54323 17.9033C8.67772 17.0378 7.28937 16.9915 6.36819 17.7976L4.12557 19.7598C4.12944 22.6826 4.15933 24.8672 4.38956 26.5796Z" fill="#F3F345"/>
</svg>
