<svg width="20" height="21" viewBox="0 0 20 21" fill="none" xmlns="http://www.w3.org/2000/svg">
<path fill-rule="evenodd" clip-rule="evenodd" d="M8.10502 4.34001C8.09431 4.34953 8.08358 4.35908 8.07281 4.36865L4.72796 7.34185C4.10384 7.89659 3.58646 8.35646 3.23122 8.77392C2.85786 9.21268 2.59201 9.68505 2.59201 10.2696C2.59201 10.8541 2.85786 11.3265 3.23121 11.7652C3.58645 12.1827 4.10383 12.6426 4.72796 13.1973L8.07281 16.1705C8.08358 16.1801 8.09432 16.1896 8.10502 16.1992C8.37538 16.4395 8.6277 16.6639 8.84569 16.8078C9.05975 16.9492 9.44901 17.1545 9.88507 16.9586C10.3211 16.7628 10.4263 16.3355 10.4629 16.0816C10.5001 15.8231 10.5001 15.4854 10.5 15.1236C10.5 15.1093 10.5 15.0949 10.5 15.0805V13.7734C11.7096 13.8568 12.9353 14.178 14.0075 14.7005C15.2683 15.3148 16.2752 16.1859 16.8216 17.2268C16.9553 17.4814 17.2454 17.6119 17.5246 17.5431C17.8038 17.4742 18 17.2238 18 16.9362C18 13.0021 16.8489 10.4405 15.2029 8.86562C13.7682 7.49291 12.0197 6.92964 10.5 6.81176V5.45862C10.5 5.44422 10.5 5.42985 10.5 5.41552C10.5001 5.05375 10.5001 4.7161 10.4629 4.45756C10.4263 4.20366 10.3211 3.77634 9.88507 3.58052C9.44901 3.3847 9.05975 3.59 8.84569 3.73133C8.6277 3.87526 8.37538 4.09962 8.10502 4.34001ZM9.24745 5.00038C9.15323 5.08113 9.04073 5.18072 8.90327 5.30291L5.59302 8.24535C4.92545 8.83875 4.47501 9.24108 4.1832 9.584C3.90296 9.91334 3.84201 10.1057 3.84201 10.2696C3.84201 10.4335 3.90295 10.6258 4.18319 10.9552C4.47501 11.2981 4.92544 11.7004 5.59302 12.2938L8.90327 15.2363C9.04073 15.3584 9.15323 15.458 9.24745 15.5388C9.2497 15.4147 9.25001 15.2645 9.25001 15.0805V13.1267C9.25001 12.7815 9.52983 12.5017 9.87501 12.5017C11.4688 12.5017 13.125 12.88 14.555 13.5768C15.3207 13.9499 16.0335 14.4205 16.6384 14.9836C16.3311 12.4444 15.423 10.8062 14.3388 9.76879C12.9887 8.47706 11.283 8.03744 9.87501 8.03744C9.52983 8.03744 9.25001 7.75762 9.25001 7.41244V5.45862C9.25001 5.2747 9.2497 5.12445 9.24745 5.00038Z" fill="#F3F345"/>
</svg>
