<svg width="24" height="25" viewBox="0 0 24 25" fill="none" xmlns="http://www.w3.org/2000/svg">
<path d="M9 5.75C8.58579 5.75 8.25 6.08579 8.25 6.5C8.25 6.91421 8.58579 7.25 9 7.25H15C15.4142 7.25 15.75 6.91421 15.75 6.5C15.75 6.08579 15.4142 5.75 15 5.75H9Z" fill="#DDDD33"/>
<path fill-rule="evenodd" clip-rule="evenodd" d="M11.9425 1.75C9.86994 1.74999 8.23715 1.74997 6.96128 1.92337C5.65121 2.10141 4.60609 2.47468 3.78484 3.30484C2.96469 4.13387 2.59692 5.18702 2.4213 6.50741C2.24997 7.79551 2.24999 9.44462 2.25 11.5411V16.639C2.24999 18.1466 2.24998 19.3402 2.34601 20.2388C2.44091 21.1269 2.64447 21.928 3.22584 22.4638C3.69226 22.8937 4.28211 23.1646 4.91165 23.2367C5.69912 23.3268 6.43439 22.9508 7.15868 22.4377C7.89163 21.9185 8.78075 21.1321 9.90254 20.1399L9.93905 20.1076C10.4591 19.6476 10.8112 19.3372 11.105 19.1224C11.3889 18.9148 11.5623 18.8397 11.7084 18.8103C11.9009 18.7715 12.0991 18.7715 12.2916 18.8103C12.4377 18.8397 12.6111 18.9148 12.895 19.1224C13.1888 19.3372 13.5409 19.6476 14.061 20.1076L14.0975 20.14C15.2193 21.1321 16.1084 21.9186 16.8413 22.4377C17.5656 22.9508 18.3009 23.3268 19.0883 23.2367C19.7179 23.1646 20.3077 22.8937 20.7742 22.4638C21.3555 21.928 21.5591 21.1269 21.654 20.2388C21.75 19.3402 21.75 18.1466 21.75 16.639V11.541C21.75 9.44462 21.75 7.7955 21.5787 6.50741C21.4031 5.18702 21.0353 4.13387 20.2152 3.30484C19.3939 2.47468 18.3488 2.10141 17.0387 1.92337C15.7628 1.74997 14.1301 1.74999 12.0575 1.75H11.9425ZM4.8512 4.35977C5.34797 3.85762 6.02251 3.56474 7.16328 3.40971C8.32645 3.25163 9.85725 3.25 12 3.25C14.1427 3.25 15.6735 3.25163 16.8367 3.40971C17.9775 3.56474 18.652 3.85762 19.1488 4.35977C19.6467 4.86303 19.9379 5.54819 20.0918 6.70518C20.2484 7.88292 20.25 9.43223 20.25 11.5975V16.5909C20.25 18.1572 20.249 19.2702 20.1625 20.0794C20.0739 20.9088 19.9104 21.22 19.7576 21.3608C19.5238 21.5763 19.2298 21.7107 18.9178 21.7464C18.7182 21.7692 18.3835 21.692 17.7083 21.2137C17.0497 20.7472 16.2211 20.0157 15.0547 18.984L15.0286 18.9609C14.5413 18.5299 14.1372 18.1725 13.7804 17.9116C13.4074 17.6388 13.0312 17.4292 12.5878 17.3398C12.1998 17.2617 11.8002 17.2617 11.4122 17.3398C10.9688 17.4292 10.5926 17.6388 10.2196 17.9116C9.86283 18.1725 9.45871 18.5299 8.97145 18.9609L8.94527 18.984C7.77887 20.0157 6.95026 20.7472 6.29165 21.2137C5.61645 21.692 5.28182 21.7692 5.08218 21.7464C4.77019 21.7107 4.47617 21.5763 4.24237 21.3608C4.08963 21.22 3.92614 20.9088 3.83752 20.0794C3.75104 19.2702 3.75 18.1572 3.75 16.5909V11.5975C3.75 9.43223 3.75156 7.88292 3.9082 6.70518C4.06209 5.54819 4.35333 4.86303 4.8512 4.35977Z" fill="#F3F345"/>
</svg>
