<svg width="20" height="21" viewBox="0 0 20 21" fill="none" xmlns="http://www.w3.org/2000/svg">
<path d="M7.45833 10.4583C7.45833 10.9186 7.08524 11.2917 6.625 11.2917C6.16476 11.2917 5.79167 10.9186 5.79167 10.4583C5.79167 9.99809 6.16476 9.625 6.625 9.625C7.08524 9.625 7.45833 9.99809 7.45833 10.4583Z" fill="#F3F345"/>
<path d="M10.7917 10.4583C10.7917 10.9186 10.4186 11.2917 9.95833 11.2917C9.49809 11.2917 9.125 10.9186 9.125 10.4583C9.125 9.99809 9.49809 9.625 9.95833 9.625C10.4186 9.625 10.7917 9.99809 10.7917 10.4583Z" fill="#F3F345"/>
<path d="M14.125 10.4583C14.125 10.9186 13.7519 11.2917 13.2917 11.2917C12.8314 11.2917 12.4583 10.9186 12.4583 10.4583C12.4583 9.99809 12.8314 9.625 13.2917 9.625C13.7519 9.625 14.125 9.99809 14.125 10.4583Z" fill="#F3F345"/>
<path fill-rule="evenodd" clip-rule="evenodd" d="M18.9167 10.4583C18.9167 5.51078 14.9059 1.5 9.95833 1.5C5.01078 1.5 1 5.51078 1 10.4583C1 11.8903 1.33642 13.2454 1.9351 14.4474C2.02444 14.6267 2.0434 14.8099 2.00217 14.964L1.50583 16.819C1.16606 18.0889 2.32781 19.2506 3.59767 18.9108L5.4527 18.4145C5.60678 18.3733 5.78992 18.3922 5.96929 18.4816C7.17127 19.0802 8.52641 19.4167 9.95833 19.4167C14.9059 19.4167 18.9167 15.4059 18.9167 10.4583ZM9.95833 2.75C14.2155 2.75 17.6667 6.20114 17.6667 10.4583C17.6667 14.7155 14.2155 18.1667 9.95833 18.1667C8.72412 18.1667 7.55934 17.8771 6.52659 17.3627C6.11209 17.1562 5.61644 17.0767 5.12961 17.207L3.27458 17.7033C2.93388 17.7945 2.62219 17.4828 2.71335 17.1421L3.20969 15.2871C3.33995 14.8002 3.26045 14.3046 3.054 13.8901C2.5396 12.8573 2.25 11.6925 2.25 10.4583C2.25 6.20114 5.70114 2.75 9.95833 2.75Z" fill="#F3F345"/>
</svg>
