<svg width="20" height="21" viewBox="0 0 20 21" fill="none" xmlns="http://www.w3.org/2000/svg">
<path fill-rule="evenodd" clip-rule="evenodd" d="M4.26401 6.95975C4.60842 6.93679 4.90624 7.19738 4.9292 7.54179L5.31248 13.2911C5.38737 14.4143 5.44072 15.1958 5.55786 15.7838C5.67149 16.3542 5.8301 16.6561 6.05794 16.8692C6.28579 17.0824 6.59758 17.2206 7.17425 17.296C7.76875 17.3738 8.55208 17.375 9.67778 17.375H10.3223C11.448 17.375 12.2313 17.3738 12.8258 17.296C13.4025 17.2206 13.7143 17.0824 13.9421 16.8692C14.17 16.6561 14.3286 16.3542 14.4422 15.7838C14.5593 15.1958 14.6127 14.4143 14.6876 13.2911L15.0709 7.54179C15.0938 7.19738 15.3916 6.93679 15.736 6.95975C16.0805 6.98271 16.3411 7.28053 16.3181 7.62494L15.9319 13.4181C15.8606 14.487 15.8031 15.3505 15.6681 16.028C15.5278 16.7324 15.2891 17.3208 14.7961 17.7821C14.3031 18.2433 13.7001 18.4423 12.9879 18.5355C12.3029 18.6251 11.4375 18.625 10.3662 18.625H9.63385C8.56252 18.625 7.69715 18.6251 7.01212 18.5355C6.29991 18.4423 5.69696 18.2433 5.20396 17.7821C4.71097 17.3208 4.47228 16.7324 4.33195 16.028C4.19697 15.3505 4.13942 14.487 4.06818 13.4181L3.68197 7.62494C3.65901 7.28053 3.9196 6.98271 4.26401 6.95975Z" fill="#FF5050"/>
<path fill-rule="evenodd" clip-rule="evenodd" d="M8.62941 2.37503L8.5911 2.37502C8.41077 2.3749 8.25367 2.3748 8.10532 2.39849C7.51923 2.49208 7.01207 2.85762 6.73795 3.38403C6.66856 3.51728 6.61897 3.66636 6.56206 3.83747L6.54996 3.87382L6.46905 4.11654C6.45323 4.16401 6.44882 4.17709 6.44498 4.1877C6.29905 4.59113 5.9207 4.86383 5.49182 4.8747C5.48054 4.87498 5.46673 4.87503 5.4167 4.87503H2.91663C2.57145 4.87503 2.29163 5.15485 2.29163 5.50003C2.29163 5.84521 2.57145 6.12503 2.91663 6.12503H5.42383H5.43778H14.5623H14.5762H17.0834C17.4285 6.12503 17.7084 5.84521 17.7084 5.50003C17.7084 5.15485 17.4285 4.87503 17.0834 4.87503H14.5834C14.5333 4.87503 14.5195 4.87498 14.5082 4.8747C14.0794 4.86383 13.701 4.59111 13.5551 4.18768C13.5513 4.17715 13.5468 4.16378 13.531 4.11654L13.4501 3.87382L13.438 3.83745C13.3811 3.66634 13.3315 3.51727 13.2621 3.38403C12.988 2.85762 12.4808 2.49208 11.8947 2.39849C11.7464 2.3748 11.5893 2.3749 11.409 2.37502L11.3706 2.37503H8.62941ZM7.62044 4.6129C7.58771 4.70337 7.54968 4.79085 7.50675 4.87503H12.4933C12.4504 4.79085 12.4123 4.70338 12.3796 4.61292L12.3474 4.51846L12.2642 4.2691C12.1883 4.04117 12.1708 3.99469 12.1534 3.96137C12.0621 3.7859 11.893 3.66405 11.6976 3.63285C11.6605 3.62693 11.6109 3.62503 11.3706 3.62503H8.62941C8.38915 3.62503 8.33953 3.62693 8.30242 3.63285C8.10706 3.66405 7.93801 3.7859 7.84663 3.96137C7.82928 3.99469 7.81179 4.04118 7.73581 4.2691L7.65264 4.51861C7.64012 4.55619 7.63038 4.58543 7.62044 4.6129Z" fill="#FF5050"/>
</svg>
