<svg width="36" height="37" viewBox="0 0 36 37" fill="none" xmlns="http://www.w3.org/2000/svg">
<path fill-rule="evenodd" clip-rule="evenodd" d="M17.9139 2.375H20.25C20.8713 2.375 21.375 2.87868 21.375 3.5C21.375 4.12132 20.8713 4.625 20.25 4.625H18C14.4327 4.625 11.8703 4.62739 9.92036 4.88956C8.00276 5.14737 6.84668 5.63771 5.99219 6.49219C5.13771 7.34668 4.64737 8.50276 4.38956 10.4204C4.12739 12.3703 4.125 14.9327 4.125 18.5C4.125 22.0673 4.12739 24.6297 4.38956 26.5796C4.64737 28.4972 5.13771 29.6533 5.99219 30.5078C6.84668 31.3623 8.00276 31.8526 9.92036 32.1104C11.8703 32.3726 14.4327 32.375 18 32.375C21.5673 32.375 24.1297 32.3726 26.0796 32.1104C27.9972 31.8526 29.1533 31.3623 30.0078 30.5078C30.8623 29.6533 31.3526 28.4972 31.6104 26.5796C31.8726 24.6297 31.875 22.0673 31.875 18.5V16.25C31.875 15.6287 32.3787 15.125 33 15.125C33.6213 15.125 34.125 15.6287 34.125 16.25V18.5861C34.125 22.0487 34.125 24.7622 33.8404 26.8794C33.549 29.0465 32.941 30.7566 31.5988 32.0988C30.2566 33.441 28.5465 34.049 26.3794 34.3404C24.2622 34.625 21.5487 34.625 18.0861 34.625H17.9139C14.4513 34.625 11.7378 34.625 9.62056 34.3404C7.45345 34.049 5.74342 33.441 4.4012 32.0988C3.05899 30.7566 2.45098 29.0465 2.15962 26.8794C1.87497 24.7622 1.87498 22.0487 1.875 18.5861V18.4139C1.87498 14.9513 1.87497 12.2378 2.15962 10.1206C2.45098 7.95345 3.05899 6.24342 4.4012 4.9012C5.74342 3.55899 7.45345 2.95098 9.62056 2.65962C11.7378 2.37497 14.4513 2.37498 17.9139 2.375ZM25.1558 3.91387C27.2076 1.86204 30.5343 1.86204 32.5861 3.91387C34.638 5.9657 34.638 9.29237 32.5861 11.3442L22.614 21.3164C22.0571 21.8734 21.7082 22.2223 21.3189 22.5259C20.8603 22.8836 20.3642 23.1902 19.8392 23.4404C19.3935 23.6528 18.9254 23.8088 18.1782 24.0578L13.8214 25.5101C13.017 25.7782 12.1302 25.5689 11.5307 24.9693C10.9311 24.3698 10.7218 23.483 10.9899 22.6786L12.4422 18.3218C12.6912 17.5746 12.8472 17.1065 13.0596 16.6608C13.3098 16.1358 13.6164 15.6397 13.9741 15.1811C14.2777 14.7918 14.6267 14.4429 15.1837 13.886L25.1558 3.91387ZM30.9951 5.50486C29.822 4.33171 27.9199 4.33171 26.7468 5.50486L26.1819 6.06979C26.2159 6.21359 26.2635 6.38491 26.3298 6.576C26.5448 7.19558 26.9516 8.01157 27.72 8.77999C28.4884 9.54841 29.3044 9.9552 29.924 10.1702C30.1151 10.2365 30.2864 10.2841 30.4302 10.3181L30.9951 9.75321C32.1683 8.58006 32.1683 6.67801 30.9951 5.50486ZM28.6577 12.0906C27.8838 11.7578 26.9822 11.2242 26.129 10.371C25.2758 9.51777 24.7422 8.61623 24.4094 7.84228L16.8263 15.4254C16.2015 16.0502 15.9565 16.2979 15.7482 16.5649C15.4911 16.8946 15.2706 17.2513 15.0907 17.6288C14.945 17.9344 14.833 18.2644 14.5536 19.1026L13.9058 21.0461L15.4539 22.5942L17.3974 21.9464C18.2356 21.667 18.5656 21.5549 18.8712 21.4093C19.2487 21.2294 19.6054 21.0089 19.9351 20.7518C20.2021 20.5435 20.4498 20.2985 21.0746 19.6737L28.6577 12.0906Z" fill="#F3F345"/>
</svg>
