<svg width="97" height="78" viewBox="0 0 97 78" fill="none" xmlns="http://www.w3.org/2000/svg">
<path d="M17.0168 24.5902H17.3119C20.066 24.3934 22.1316 22.0328 22.0332 19.2787C21.8365 16.5246 19.4759 14.459 16.7218 14.5574C13.9677 14.6557 11.9021 17.1147 12.0004 19.8688C12.0988 22.5246 14.3611 24.5902 17.0168 24.5902ZM14.6562 17.5082C15.148 16.918 15.9349 16.5246 16.7218 16.5246H16.9185C18.5906 16.5246 19.9677 17.9016 19.9677 19.5738C19.9677 21.2459 18.5906 22.6229 16.9185 22.6229C15.2463 22.6229 13.8693 21.2459 13.8693 19.5738C13.8693 18.7869 14.1644 18.0984 14.6562 17.5082Z" fill="#DDDD33"/>
<path d="M84.2961 19.082L58.0338 17.6066L57.8371 14.6557C57.542 9.04918 52.7223 4.72131 47.0174 5.01639L13.6731 6.88524C8.06656 7.18032 3.73869 12.0984 4.03377 17.7049L5.90262 51.1475V51.9344C6.59115 57.0492 10.919 60.8852 16.0338 60.8852H16.6239L37.9682 59.7049V60.2951C37.6731 65.9016 41.9026 70.8197 47.6075 71.1148L81.0502 73.082H81.6403C87.0502 73.082 91.5748 68.8525 91.8698 63.4426L93.8371 30C94.2305 24.2951 89.9026 19.4754 84.2961 19.082ZM8.06656 11.6066C9.54197 9.93442 11.6075 8.95082 13.7715 8.85245L47.2141 6.9836C51.7387 6.68852 55.6731 10.2295 55.9682 14.7541L56.1649 17.5082L50.9518 17.2131C45.3452 16.918 40.4272 21.1475 40.1321 26.8525L39.542 36.1967L30.1977 46.7213C30.001 47.0164 29.6075 47.1148 29.2141 47.2131C28.8207 47.2131 28.5256 47.1148 28.2305 46.8197L20.5584 39.9344C19.1813 38.6557 17.1157 38.8525 15.837 40.2295L7.86983 49.1803L6.09934 17.7049C5.90262 15.4426 6.68951 13.2787 8.06656 11.6066ZM16.6239 58.8197C12.3944 59.0164 8.65672 56.0656 7.96819 51.8361L17.2141 41.5082C17.4108 41.2131 17.8043 41.1148 18.1977 41.0164C18.5911 41.0164 18.8862 41.1148 19.1813 41.4098L26.8534 48.2951C27.542 48.8852 28.4272 49.1803 29.3125 49.1803C30.1977 49.1803 30.9846 48.6885 31.5748 48.0984L39.2469 39.4426L38.1649 57.7377L16.6239 58.8197ZM91.8698 29.8033L89.9026 63.2459C89.6075 67.7705 85.6731 71.3115 81.1485 71.0164L47.7059 69.0492C43.1813 68.7541 39.6403 64.8197 39.9354 60.2951L41.9026 26.8525C42.1977 22.5246 45.7387 19.082 50.1649 19.082H50.6567L84.0993 21.0492C88.7223 21.3443 92.1649 25.2787 91.8698 29.8033Z" fill="#DDDD33"/>
<path d="M77.9027 41.9016L61.2797 30.9836C59.2141 29.6066 56.46 30.1967 55.1813 32.2623C54.7879 32.9508 54.4928 33.6393 54.4928 34.4262L53.3125 54.1967C53.2141 56.6557 54.9846 58.7213 57.4436 58.918H57.7387C58.4273 58.918 59.1158 58.7213 59.7059 58.4262L77.4109 49.5738C79.5748 48.4918 80.46 45.8361 79.3781 43.6721C78.9846 42.9836 78.4928 42.3934 77.9027 41.9016ZM76.5256 47.8033L58.8207 56.6557C58.4273 56.8525 58.0338 56.9508 57.542 56.9508C57.1486 56.9508 56.6568 56.7541 56.3617 56.5574C55.6732 56.0656 55.1814 55.2787 55.2797 54.3934L56.46 34.623C56.5584 33.7377 57.0502 32.9508 57.8371 32.5574C58.624 32.1639 59.5092 32.2623 60.2961 32.6557L76.7223 43.5738C77.9027 44.3607 78.1977 45.8361 77.4109 46.918C77.2141 47.3115 76.9191 47.6066 76.5256 47.8033Z" fill="#DDDD33"/>
</svg>
