<svg width="20" height="21" viewBox="0 0 20 21" fill="none" xmlns="http://www.w3.org/2000/svg">
<path fill-rule="evenodd" clip-rule="evenodd" d="M18.9584 6.3335C18.9584 6.67867 18.6786 6.9585 18.3334 6.9585H1.66672C1.32154 6.9585 1.04172 6.67867 1.04172 6.3335C1.04172 5.98832 1.32154 5.7085 1.66672 5.7085H18.3334C18.6786 5.7085 18.9584 5.98832 18.9584 6.3335Z" fill="#DDDD33"/>
<path fill-rule="evenodd" clip-rule="evenodd" d="M16.4584 10.5C16.4584 10.8452 16.1786 11.125 15.8334 11.125H4.16672C3.82154 11.125 3.54172 10.8452 3.54172 10.5C3.54172 10.1548 3.82154 9.875 4.16672 9.875H15.8334C16.1786 9.875 16.4584 10.1548 16.4584 10.5Z" fill="#DDDD33"/>
<path fill-rule="evenodd" clip-rule="evenodd" d="M13.9584 14.6665C13.9584 15.0117 13.6786 15.2915 13.3334 15.2915H6.66672C6.32154 15.2915 6.04172 15.0117 6.04172 14.6665C6.04172 14.3213 6.32154 14.0415 6.66672 14.0415H13.3334C13.6786 14.0415 13.9584 14.3213 13.9584 14.6665Z" fill="#DDDD33"/>
</svg>
