<svg width="20" height="21" viewBox="0 0 20 21" fill="none" xmlns="http://www.w3.org/2000/svg">
<path fill-rule="evenodd" clip-rule="evenodd" d="M10 1.5415C7.8139 1.5415 6.0417 3.31371 6.0417 5.49984C6.0417 7.68596 7.8139 9.45817 10 9.45817C12.1862 9.45817 13.9584 7.68596 13.9584 5.49984C13.9584 3.31371 12.1862 1.5415 10 1.5415ZM7.2917 5.49984C7.2917 4.00407 8.50426 2.7915 10 2.7915C11.4958 2.7915 12.7084 4.00407 12.7084 5.49984C12.7084 6.99561 11.4958 8.20817 10 8.20817C8.50426 8.20817 7.2917 6.99561 7.2917 5.49984Z" fill="#F3F345"/>
<path fill-rule="evenodd" clip-rule="evenodd" d="M10 10.7082C8.07207 10.7082 6.2958 11.1464 4.97957 11.8868C3.68293 12.6161 2.70836 13.7216 2.70836 15.0832L2.70831 15.1681C2.70737 16.1363 2.70619 17.3515 3.77204 18.2195C4.2966 18.6466 5.03043 18.9504 6.02187 19.1511C7.01608 19.3523 8.31189 19.4582 10 19.4582C11.6882 19.4582 12.984 19.3523 13.9782 19.1511C14.9696 18.9504 15.7035 18.6466 16.228 18.2195C17.2939 17.3515 17.2927 16.1363 17.2918 15.1681L17.2917 15.0832C17.2917 13.7216 16.3171 12.6161 15.0205 11.8868C13.7043 11.1464 11.928 10.7082 10 10.7082ZM3.95836 15.0832C3.95836 14.3737 4.47618 13.6041 5.5924 12.9763C6.68903 12.3594 8.24609 11.9582 10 11.9582C11.754 11.9582 13.311 12.3594 14.4077 12.9763C15.5239 13.6041 16.0417 14.3737 16.0417 15.0832C16.0417 16.173 16.0081 16.7865 15.4387 17.2502C15.1299 17.5016 14.6138 17.7471 13.7302 17.9259C12.8494 18.1042 11.6452 18.2082 10 18.2082C8.35484 18.2082 7.15065 18.1042 6.26986 17.9259C5.3863 17.7471 4.87013 17.5016 4.56135 17.2502C3.99196 16.7865 3.95836 16.173 3.95836 15.0832Z" fill="#F3F345"/>
</svg>
