<svg width="24" height="25" viewBox="0 0 24 25" fill="none" xmlns="http://www.w3.org/2000/svg">
<path fill-rule="evenodd" clip-rule="evenodd" d="M18.5 1.75C18.9142 1.75 19.25 2.08579 19.25 2.5V5.25H22C22.4142 5.25 22.75 5.58579 22.75 6C22.75 6.41421 22.4142 6.75 22 6.75H19.25V9.5C19.25 9.91421 18.9142 10.25 18.5 10.25C18.0858 10.25 17.75 9.91421 17.75 9.5V6.75H15C14.5858 6.75 14.25 6.41421 14.25 6C14.25 5.58579 14.5858 5.25 15 5.25H17.75V2.5C17.75 2.08579 18.0858 1.75 18.5 1.75Z" fill="#F3F345"/>
<path fill-rule="evenodd" clip-rule="evenodd" d="M12 1.75H11.9426C9.63424 1.74999 7.8252 1.74998 6.41372 1.93975C4.96898 2.13399 3.82896 2.53933 2.93415 3.43414C2.03934 4.32895 1.634 5.46897 1.43976 6.91371C1.24999 8.32519 1.25 10.1342 1.25001 12.4426V12.5574C1.25 14.8658 1.24999 16.6748 1.43976 18.0863C1.634 19.531 2.03934 20.6711 2.93415 21.5659C3.82896 22.4607 4.96898 22.866 6.41372 23.0603C7.8252 23.25 9.63424 23.25 11.9426 23.25H12.0574C14.3658 23.25 16.1748 23.25 17.5863 23.0603C19.031 22.866 20.1711 22.4607 21.0659 21.5659C21.9607 20.6711 22.366 19.531 22.5603 18.0863C22.75 16.6748 22.75 14.8658 22.75 12.5574V12.5C22.75 12.0858 22.4142 11.75 22 11.75C21.5858 11.75 21.25 12.0858 21.25 12.5C21.25 14.8782 21.2484 16.5864 21.0736 17.8864C21.0667 17.9377 21.0596 17.9882 21.0522 18.0378L18.2782 15.5412C16.9788 14.3718 15.0437 14.2553 13.6134 15.2605L13.3152 15.4701C12.8182 15.8193 12.1421 15.7608 11.7126 15.3313L7.42283 11.0415C6.28742 9.90612 4.46614 9.84547 3.25772 10.9028L2.75099 11.3462C2.75553 9.55395 2.78125 8.19302 2.92638 7.11358C3.09826 5.83517 3.42515 5.06445 3.99481 4.4948C4.56446 3.92514 5.33518 3.59825 6.61359 3.42637C7.91357 3.25159 9.62178 3.25 12 3.25C12.4142 3.25 12.75 2.91421 12.75 2.5C12.75 2.08579 12.4142 1.75 12 1.75ZM2.92638 17.8864C3.09826 19.1648 3.42515 19.9355 3.99481 20.5052C4.56446 21.0749 5.33518 21.4018 6.61359 21.5736C7.91357 21.7484 9.62178 21.75 12 21.75C14.3782 21.75 16.0865 21.7484 17.3864 21.5736C18.6648 21.4018 19.4356 21.0749 20.0052 20.5052C20.2487 20.2617 20.4479 19.9814 20.6096 19.6404C20.5707 19.6166 20.5334 19.589 20.4983 19.5574L17.2748 16.6562C16.4951 15.9545 15.334 15.8846 14.4759 16.4877L14.1777 16.6973C13.0843 17.4657 11.5968 17.3369 10.6519 16.3919L6.36216 12.1022C5.78515 11.5252 4.85959 11.4944 4.24547 12.0317L2.75039 13.3399C2.75297 15.2884 2.7729 16.7448 2.92638 17.8864Z" fill="#F3F345"/>
</svg>
