<svg width="24" height="25" viewBox="0 0 24 25" fill="none" xmlns="http://www.w3.org/2000/svg">
<path d="M9 17.75C8.58579 17.75 8.25 18.0858 8.25 18.5C8.25 18.9142 8.58579 19.25 9 19.25H15C15.4142 19.25 15.75 18.9142 15.75 18.5C15.75 18.0858 15.4142 17.75 15 17.75H9Z" fill="#F3F345"/>
<path fill-rule="evenodd" clip-rule="evenodd" d="M12 1.75C11.2919 1.75 10.6485 1.95282 9.95055 2.29224C9.27585 2.62035 8.49642 3.10409 7.52286 3.70832L5.45628 4.9909C4.53509 5.56261 3.79744 6.0204 3.2289 6.45581C2.64015 6.90669 2.18795 7.36589 1.86131 7.96263C1.53535 8.55812 1.38857 9.19174 1.31819 9.9407C1.24999 10.6665 1.24999 11.5541 1.25 12.6672V14.2799C1.24999 16.1837 1.24998 17.6866 1.4027 18.8616C1.55937 20.067 1.88856 21.0401 2.63236 21.8094C3.37958 22.5824 4.33046 22.9277 5.50761 23.0914C6.64849 23.25 8.10556 23.25 9.94185 23.25H14.0581C15.8944 23.25 17.3515 23.25 18.4924 23.0914C19.6695 22.9277 20.6204 22.5824 21.3676 21.8094C22.1114 21.0401 22.4406 20.067 22.5973 18.8616C22.75 17.6866 22.75 16.1838 22.75 14.2799V12.6672C22.75 11.5541 22.75 10.6665 22.6818 9.9407C22.6114 9.19174 22.4646 8.55812 22.1387 7.96263C21.8121 7.36589 21.3599 6.90669 20.7711 6.45581C20.2026 6.0204 19.4649 5.56262 18.5437 4.99091L16.4771 3.70831C15.5036 3.10409 14.7241 2.62034 14.0494 2.29224C13.3515 1.95282 12.7081 1.75 12 1.75ZM8.27953 5.00412C9.29529 4.37371 10.0095 3.93153 10.6065 3.6412C11.1882 3.35833 11.6002 3.25 12 3.25C12.3998 3.25 12.8118 3.35833 13.3935 3.64119C13.9905 3.93153 14.7047 4.37371 15.7205 5.00412L17.7205 6.24537C18.6813 6.84169 19.3559 7.26135 19.8591 7.6467C20.3487 8.02164 20.6303 8.33106 20.8229 8.68285C21.0162 9.03589 21.129 9.44865 21.1884 10.081C21.2492 10.7286 21.25 11.5458 21.25 12.7039V14.225C21.25 16.1959 21.2485 17.6012 21.1098 18.6683C20.9736 19.7163 20.717 20.3244 20.2892 20.7669C19.8649 21.2058 19.2871 21.4664 18.2858 21.6057C17.2602 21.7483 15.9075 21.75 14 21.75H10C8.09247 21.75 6.73983 21.7483 5.71422 21.6057C4.71286 21.4664 4.13514 21.2058 3.71079 20.7669C3.28301 20.3244 3.02642 19.7163 2.89019 18.6683C2.75149 17.6012 2.75 16.1959 2.75 14.225V12.7039C2.75 11.5458 2.75076 10.7286 2.81161 10.081C2.87103 9.44865 2.98385 9.03589 3.17709 8.68285C3.36965 8.33106 3.65133 8.02164 4.14092 7.6467C4.6441 7.26135 5.31869 6.84169 6.27953 6.24537L8.27953 5.00412Z" fill="#F3F345"/>
</svg>
