<svg width="18" height="17" viewBox="0 0 18 17" fill="none" xmlns="http://www.w3.org/2000/svg">
<g clip-path="url(#clip0_1_49)">
<path fill-rule="evenodd" clip-rule="evenodd" d="M3.66225 2.11569C2.27333 2.76398 1.25581 4.30596 1.25581 6.14473C1.25581 8.02328 2.00865 9.47125 3.08787 10.7122C3.97735 11.7349 5.0541 12.5826 6.1042 13.4092C6.35361 13.6056 6.60152 13.8007 6.84506 13.9968C7.28546 14.3513 7.67832 14.6624 8.05698 14.8884C8.43584 15.1144 8.7408 15.2177 9 15.2177C9.2592 15.2177 9.56416 15.1144 9.94302 14.8884C10.3217 14.6624 10.7145 14.3513 11.1549 13.9968C11.3985 13.8007 11.6464 13.6056 11.8958 13.4092C12.9459 12.5825 14.0226 11.7349 14.9121 10.7122C15.9914 9.47125 16.7442 8.02328 16.7442 6.14473C16.7442 4.30596 15.7267 2.76398 14.3377 2.11569C12.9884 1.48587 11.1754 1.65266 9.4524 3.48057C9.33403 3.60615 9.17069 3.6771 9 3.6771C8.82931 3.6771 8.66597 3.60615 8.5476 3.48057C6.82465 1.65266 5.01159 1.48587 3.66225 2.11569ZM9 2.14529C7.06433 0.376872 4.8968 0.129489 3.14017 0.949413C1.28488 1.81539 0 3.8262 0 6.14473C0 8.42348 0.929718 10.1618 2.14888 11.5637C3.1252 12.6863 4.32019 13.6258 5.37557 14.4556C5.61482 14.6437 5.84688 14.8261 6.06761 15.0038C6.49645 15.349 6.95683 15.7172 7.42339 15.9955C7.88974 16.2738 8.42199 16.5 9 16.5C9.57801 16.5 10.1103 16.2738 10.5766 15.9955C11.0432 15.7171 11.5035 15.349 11.9324 15.0038C12.1531 14.8261 12.3852 14.6437 12.6244 14.4556C13.6798 13.6258 14.8748 12.6863 15.8511 11.5637C17.0703 10.1618 18 8.42348 18 6.14473C18 3.8262 16.7151 1.81539 14.8598 0.949413C13.1032 0.129489 10.9357 0.376872 9 2.14529Z" fill="#F3F345"/>
</g>
<defs>
<clipPath id="clip0_1_49">
<rect width="18" height="16" fill="white" transform="translate(0 0.5)"/>
</clipPath>
</defs>
</svg>
