<svg width="24" height="25" viewBox="0 0 24 25" fill="none" xmlns="http://www.w3.org/2000/svg">
<path d="M5.46967 13.0303C5.17678 12.7374 5.17678 12.2626 5.46967 11.9697L7.46967 9.96967C7.76257 9.67678 8.23744 9.67678 8.53033 9.96967C8.82323 10.2626 8.82323 10.7374 8.53033 11.0303L7.81066 11.75H15C15.4142 11.75 15.75 12.0858 15.75 12.5C15.75 12.9142 15.4142 13.25 15 13.25H7.81066L8.53033 13.9697C8.82323 14.2626 8.82323 14.7374 8.53033 15.0303C8.23744 15.3232 7.76257 15.3232 7.46967 15.0303L5.46967 13.0303Z" fill="#F3F345"/>
<path fill-rule="evenodd" clip-rule="evenodd" d="M13.9453 1.75H15.0551C16.4227 1.74998 17.525 1.74996 18.392 1.86652C19.2921 1.98754 20.05 2.24643 20.6519 2.84835C21.2538 3.45027 21.5127 4.20814 21.6337 5.10825C21.7503 5.97522 21.7502 7.07754 21.7502 8.44513V16.5549C21.7502 17.9225 21.7503 19.0248 21.6337 19.8918C21.5127 20.7919 21.2538 21.5497 20.6519 22.1517C20.05 22.7536 19.2921 23.0125 18.392 23.1335C17.525 23.25 16.4227 23.25 15.0551 23.25H13.9453C12.5778 23.25 11.4754 23.25 10.6085 23.1335C9.70836 23.0125 8.95048 22.7536 8.34857 22.1517C7.94963 21.7527 7.70068 21.2844 7.54305 20.7498C6.59168 20.7486 5.79906 20.7381 5.15689 20.6518C4.39294 20.5491 3.7306 20.3268 3.20191 19.7981C2.67321 19.2694 2.45093 18.6071 2.34822 17.8431C2.24996 17.1123 2.24998 16.1865 2.25 15.0537V9.94631C2.24998 8.81349 2.24996 7.88774 2.34822 7.15689C2.45093 6.39294 2.67321 5.7306 3.20191 5.2019C3.7306 4.67321 4.39294 4.45093 5.15689 4.34822C5.79906 4.26188 6.59168 4.25142 7.54305 4.25017C7.70068 3.71562 7.94963 3.24729 8.34857 2.84835C8.95048 2.24643 9.70836 1.98754 10.6085 1.86652C11.4754 1.74996 12.5778 1.74998 13.9453 1.75ZM7.25197 17.5042C7.25555 18.1487 7.2662 18.7293 7.30285 19.2491C6.46836 19.2459 5.848 19.2312 5.35676 19.1652C4.75914 19.0848 4.46611 18.941 4.26257 18.7374C4.05903 18.5339 3.91519 18.2409 3.83484 17.6432C3.7516 17.0241 3.75 16.1997 3.75 15V10C3.75 8.80029 3.7516 7.97595 3.83484 7.35676C3.91519 6.75914 4.05903 6.4661 4.26257 6.26256C4.46611 6.05902 4.75914 5.91519 5.35676 5.83484C5.848 5.7688 6.46836 5.75415 7.30285 5.75091C7.2662 6.27073 7.25555 6.85129 7.25197 7.49583C7.24966 7.91003 7.58357 8.24768 7.99778 8.24999C8.41199 8.2523 8.74964 7.91838 8.75194 7.50418C8.75803 6.41068 8.78643 5.6356 8.89448 5.04735C8.9986 4.48054 9.16577 4.15246 9.40923 3.90901C9.68599 3.63225 10.0746 3.4518 10.8083 3.35315C11.5637 3.25159 12.5648 3.25 14.0002 3.25H15.0002C16.4356 3.25 17.4367 3.25159 18.1921 3.35315C18.9259 3.4518 19.3144 3.63225 19.5912 3.90901C19.868 4.18577 20.0484 4.57435 20.1471 5.30812C20.2486 6.06347 20.2502 7.06459 20.2502 8.5V16.5C20.2502 17.9354 20.2486 18.9365 20.1471 19.6919C20.0484 20.4257 19.868 20.8142 19.5912 21.091C19.3144 21.3678 18.9259 21.5482 18.1921 21.6469C17.4367 21.7484 16.4356 21.75 15.0002 21.75H14.0002C12.5648 21.75 11.5637 21.7484 10.8083 21.6469C10.0746 21.5482 9.68599 21.3678 9.40923 21.091C9.16577 20.8475 8.9986 20.5195 8.89448 19.9527C8.78643 19.3644 8.75803 18.5893 8.75194 17.4958C8.74964 17.0816 8.41199 16.7477 7.99778 16.75C7.58357 16.7523 7.24966 17.09 7.25197 17.5042Z" fill="#F3F345"/>
</svg>
