<svg width="24" height="25" viewBox="0 0 24 25" fill="none" xmlns="http://www.w3.org/2000/svg">
<path fill-rule="evenodd" clip-rule="evenodd" d="M9 1.75C6.37665 1.75 4.25 3.87665 4.25 6.5C4.25 9.12335 6.37665 11.25 9 11.25C11.6234 11.25 13.75 9.12335 13.75 6.5C13.75 3.87665 11.6234 1.75 9 1.75ZM5.75 6.5C5.75 4.70507 7.20507 3.25 9 3.25C10.7949 3.25 12.25 4.70507 12.25 6.5C12.25 8.29493 10.7949 9.75 9 9.75C7.20507 9.75 5.75 8.29493 5.75 6.5Z" fill="#F3F345"/>
<path d="M15 2.75C14.5858 2.75 14.25 3.08579 14.25 3.5C14.25 3.91421 14.5858 4.25 15 4.25C16.2426 4.25 17.25 5.25736 17.25 6.5C17.25 7.74264 16.2426 8.75 15 8.75C14.5858 8.75 14.25 9.08579 14.25 9.5C14.25 9.91421 14.5858 10.25 15 10.25C17.0711 10.25 18.75 8.57107 18.75 6.5C18.75 4.42893 17.0711 2.75 15 2.75Z" fill="#F3F345"/>
<path fill-rule="evenodd" clip-rule="evenodd" d="M3.67815 14.0204C5.07752 13.2208 6.96067 12.75 9 12.75C11.0393 12.75 12.9225 13.2208 14.3219 14.0204C15.7 14.8079 16.75 16.0101 16.75 17.5C16.75 18.9899 15.7 20.1921 14.3219 20.9796C12.9225 21.7792 11.0393 22.25 9 22.25C6.96067 22.25 5.07752 21.7792 3.67815 20.9796C2.3 20.1921 1.25 18.9899 1.25 17.5C1.25 16.0101 2.3 14.8079 3.67815 14.0204ZM4.42236 15.3228C3.26701 15.983 2.75 16.7807 2.75 17.5C2.75 18.2193 3.26701 19.017 4.42236 19.6772C5.55649 20.3253 7.17334 20.75 9 20.75C10.8267 20.75 12.4435 20.3253 13.5776 19.6772C14.733 19.017 15.25 18.2193 15.25 17.5C15.25 16.7807 14.733 15.983 13.5776 15.3228C12.4435 14.6747 10.8267 14.25 9 14.25C7.17334 14.25 5.55649 14.6747 4.42236 15.3228Z" fill="#F3F345"/>
<path d="M18.1607 13.7674C17.7561 13.6787 17.3561 13.9347 17.2674 14.3393C17.1787 14.7439 17.4347 15.1439 17.8393 15.2326C18.6317 15.4064 19.2649 15.7048 19.6829 16.0468C20.1014 16.3892 20.25 16.7237 20.25 17C20.25 17.2507 20.1294 17.545 19.7969 17.8539C19.462 18.165 18.9475 18.4524 18.2838 18.6523C17.8871 18.7717 17.6624 19.19 17.7818 19.5867C17.9013 19.9833 18.3196 20.208 18.7162 20.0886C19.5388 19.8409 20.2743 19.4578 20.8178 18.9529C21.3637 18.4457 21.75 17.7786 21.75 17C21.75 16.1352 21.2758 15.412 20.6328 14.8859C19.9893 14.3593 19.1225 13.9783 18.1607 13.7674Z" fill="#F3F345"/>
</svg>
