<svg width="20" height="21" viewBox="0 0 20 21" fill="none" xmlns="http://www.w3.org/2000/svg">
<g clip-path="url(#clip0_1_51)">
<mask id="mask0_1_51" style="mask-type:luminance" maskUnits="userSpaceOnUse" x="0" y="0" width="20" height="21">
<path d="M20 0.5H0V20.5H20V0.5Z" fill="white"/>
</mask>
<g mask="url(#mask0_1_51)">
<path d="M1.66675 10.4998C1.66675 6.57147 1.66675 4.60728 2.88714 3.38689C4.10752 2.1665 6.07171 2.1665 10.0001 2.1665C13.9285 2.1665 15.8926 2.1665 17.113 3.38689C18.3334 4.60728 18.3334 6.57147 18.3334 10.4998C18.3334 14.4282 18.3334 16.3924 17.113 17.6128C15.8926 18.8332 13.9285 18.8332 10.0001 18.8332C6.07171 18.8332 4.10752 18.8332 2.88714 17.6128C1.66675 16.3924 1.66675 14.4282 1.66675 10.4998Z" stroke="#F3F345" stroke-width="1.5"/>
<path d="M13.3334 8.83334C14.2539 8.83334 15.0001 8.08715 15.0001 7.16667C15.0001 6.24619 14.2539 5.5 13.3334 5.5C12.4129 5.5 11.6667 6.24619 11.6667 7.16667C11.6667 8.08715 12.4129 8.83334 13.3334 8.83334Z" stroke="#F3F345" stroke-width="1.5"/>
<path d="M1.66675 10.9169L3.1264 9.63976C3.8858 8.97529 5.03031 9.0134 5.74382 9.72691L9.31859 13.3017C9.89128 13.8744 10.7928 13.9525 11.4554 13.4868L11.7039 13.3121C12.6574 12.642 13.9475 12.7196 14.8138 13.4993L17.5001 15.9169" stroke="#F3F345" stroke-width="1.5" stroke-linecap="round"/>
</g>
</g>
<defs>
<clipPath id="clip0_1_51">
<rect width="20" height="20" fill="white" transform="translate(0 0.5)"/>
</clipPath>
</defs>
</svg>
