<svg width="20" height="21" viewBox="0 0 20 21" fill="none" xmlns="http://www.w3.org/2000/svg">
<path d="M7.5 4.87533C7.15482 4.87533 6.875 5.15515 6.875 5.50033C6.875 5.8455 7.15482 6.12533 7.5 6.12533H12.5C12.8452 6.12533 13.125 5.8455 13.125 5.50033C13.125 5.15515 12.8452 4.87533 12.5 4.87533H7.5Z" fill="#F3F345"/>
<path fill-rule="evenodd" clip-rule="evenodd" d="M9.95209 1.54199C8.22495 1.54198 6.8643 1.54197 5.80107 1.68647C4.70935 1.83484 3.83841 2.1459 3.15403 2.83769C2.47058 3.52855 2.1641 4.40617 2.01775 5.5065C1.87498 6.57992 1.87499 7.95418 1.875 9.70122V13.9495C1.87499 15.2058 1.87498 16.2005 1.95501 16.9493C2.03409 17.6894 2.20373 18.357 2.6882 18.8035C3.07688 19.1617 3.56842 19.3875 4.09304 19.4476C4.74927 19.5226 5.36199 19.2093 5.96557 18.7818C6.57636 18.3491 7.3173 17.6938 8.25212 16.8669L8.28254 16.84C8.71593 16.4567 9.00935 16.198 9.25416 16.019C9.49076 15.846 9.63522 15.7834 9.75698 15.7589C9.91743 15.7266 10.0826 15.7266 10.243 15.7589C10.3648 15.7834 10.5092 15.846 10.7458 16.019C10.9906 16.198 11.2841 16.4567 11.7175 16.84L11.7479 16.867C12.6827 17.6938 13.4237 18.3491 14.0344 18.7818C14.638 19.2093 15.2507 19.5226 15.907 19.4476C16.4316 19.3875 16.9231 19.1617 17.3118 18.8035C17.7963 18.357 17.9659 17.6894 18.045 16.9493C18.125 16.2005 18.125 15.2058 18.125 13.9495V9.7012C18.125 7.95418 18.125 6.57991 17.9823 5.5065C17.8359 4.40617 17.5294 3.52855 16.846 2.83769C16.1616 2.1459 15.2907 1.83484 14.1989 1.68647C13.1357 1.54197 11.7751 1.54198 10.0479 1.54199H9.95209ZM4.04267 3.7168C4.45664 3.29834 5.01876 3.05428 5.9694 2.92508C6.93871 2.79335 8.21438 2.79199 10 2.79199C11.7856 2.79199 13.0613 2.79335 14.0306 2.92508C14.9812 3.05428 15.5434 3.29834 15.9573 3.7168C16.3722 4.13619 16.6149 4.70715 16.7432 5.67131C16.8737 6.65276 16.875 7.94385 16.875 9.74826V13.9094C16.875 15.2147 16.8741 16.1421 16.8021 16.8165C16.7282 17.5076 16.592 17.767 16.4647 17.8843C16.2699 18.0639 16.0248 18.1759 15.7649 18.2057C15.5985 18.2247 15.3196 18.1603 14.757 17.7617C14.2081 17.373 13.5176 16.7634 12.5456 15.9037L12.5238 15.8844C12.1177 15.5252 11.781 15.2274 11.4837 15.01C11.1728 14.7827 10.8594 14.608 10.4899 14.5335C10.1665 14.4684 9.83352 14.4684 9.51015 14.5335C9.14064 14.608 8.82715 14.7827 8.51633 15.01C8.21902 15.2274 7.88226 15.5252 7.47621 15.8844L7.45439 15.9037C6.48239 16.7634 5.79189 17.373 5.24304 17.7617C4.68038 18.1603 4.40151 18.2247 4.23515 18.2057C3.97516 18.1759 3.73014 18.0639 3.53531 17.8843C3.40803 17.767 3.27179 17.5076 3.19793 16.8165C3.12587 16.1421 3.125 15.2147 3.125 13.9094V9.74826C3.125 7.94385 3.1263 6.65276 3.25684 5.67131C3.38508 4.70715 3.62777 4.13619 4.04267 3.7168Z" fill="#F3F345"/>
</svg>
