<svg width="20" height="21" viewBox="0 0 20 21" fill="none" xmlns="http://www.w3.org/2000/svg">
<path fill-rule="evenodd" clip-rule="evenodd" d="M17.5 9.74777V13.9089C17.5 16.4894 17.5 17.7796 16.8882 18.3434C16.5965 18.6123 16.2282 18.7812 15.8359 18.8261C15.0133 18.9202 14.0527 18.0706 12.1315 16.3714C11.2823 15.6202 10.8577 15.2447 10.3664 15.1457C10.1245 15.097 9.87548 15.097 9.63356 15.1457C9.14229 15.2447 8.71768 15.6202 7.86847 16.3714C5.94728 18.0706 4.98668 18.9202 4.1641 18.8261C3.77179 18.7812 3.40351 18.6123 3.11176 18.3434C2.5 17.7796 2.5 16.4894 2.5 13.9089V9.74777C2.5 6.17393 2.5 4.38701 3.59835 3.27675C4.6967 2.1665 6.46447 2.1665 10 2.1665C13.5355 2.1665 15.3033 2.1665 16.4016 3.27675C17.5 4.38701 17.5 6.17393 17.5 9.74777ZM6.875 5.49984C6.875 5.15466 7.15482 4.87484 7.5 4.87484H12.5C12.8452 4.87484 13.125 5.15466 13.125 5.49984C13.125 5.84502 12.8452 6.12484 12.5 6.12484H7.5C7.15482 6.12484 6.875 5.84502 6.875 5.49984Z" fill="#F3F345"/>
</svg>
