<svg width="20" height="21" viewBox="0 0 20 21" fill="none" xmlns="http://www.w3.org/2000/svg">
<path fill-rule="evenodd" clip-rule="evenodd" d="M11.895 4.34001C11.9057 4.34953 11.9164 4.35908 11.9272 4.36865L15.2721 7.34185C15.8962 7.89659 16.4136 8.35646 16.7688 8.77392C17.1421 9.21268 17.408 9.68505 17.408 10.2696C17.408 10.8541 17.1421 11.3265 16.7688 11.7652C16.4136 12.1827 15.8962 12.6426 15.2721 13.1973L11.9272 16.1705C11.9164 16.1801 11.9057 16.1896 11.895 16.1992C11.6246 16.4395 11.3723 16.6639 11.1543 16.8078C10.9403 16.9492 10.551 17.1545 10.1149 16.9586C9.67888 16.7628 9.57372 16.3355 9.53714 16.0816C9.49988 15.8231 9.49994 15.4854 9.5 15.1236C9.5 15.1093 9.5 15.0949 9.5 15.0805V13.7734C8.29042 13.8568 7.06469 14.178 5.99252 14.7005C4.73173 15.3148 3.72483 16.1859 3.17837 17.2268C3.04471 17.4814 2.75458 17.6119 2.47539 17.5431C2.1962 17.4742 2 17.2238 2 16.9362C2 13.0021 3.15115 10.4405 4.79708 8.86562C6.23175 7.49291 7.9803 6.92964 9.5 6.81176V5.45862C9.5 5.44422 9.5 5.42985 9.5 5.41552C9.49994 5.05375 9.49988 4.7161 9.53714 4.45756C9.57372 4.20366 9.67888 3.77634 10.1149 3.58052C10.551 3.3847 10.9403 3.59 11.1543 3.73133C11.3723 3.87526 11.6246 4.09962 11.895 4.34001ZM10.7526 5.00038C10.8468 5.08113 10.9593 5.18072 11.0967 5.30291L14.407 8.24535C15.0746 8.83875 15.525 9.24108 15.8168 9.584C16.0971 9.91334 16.158 10.1057 16.158 10.2696C16.158 10.4335 16.0971 10.6258 15.8168 10.9552C15.525 11.2981 15.0746 11.7004 14.407 12.2938L11.0967 15.2363C10.9593 15.3584 10.8468 15.458 10.7526 15.5388C10.7503 15.4147 10.75 15.2645 10.75 15.0805V13.1267C10.75 12.7815 10.4702 12.5017 10.125 12.5017C8.53119 12.5017 6.87496 12.88 5.44498 13.5768C4.6793 13.9499 3.9665 14.4205 3.3616 14.9836C3.66891 12.4444 4.57701 10.8062 5.66125 9.76879C7.01129 8.47706 8.71702 8.03744 10.125 8.03744C10.4702 8.03744 10.75 7.75762 10.75 7.41244V5.45862C10.75 5.2747 10.7503 5.12445 10.7526 5.00038Z" fill="#F3F345"/>
</svg>
