<svg width="24" height="25" viewBox="0 0 24 25" fill="none" xmlns="http://www.w3.org/2000/svg">
<path fill-rule="evenodd" clip-rule="evenodd" d="M10.9451 1.75H13.0549C14.4225 1.74998 15.5248 1.74996 16.3918 1.86652C17.2919 1.98754 18.0497 2.24643 18.6517 2.84835C19.0519 3.24855 19.3004 3.7177 19.4576 4.25175C19.6692 4.25503 19.8458 4.26426 20.0084 4.29001C21.3991 4.51027 22.4897 5.60094 22.71 6.99159C22.7502 7.24548 22.7501 7.53358 22.75 7.93528C22.75 7.95653 22.75 7.9781 22.75 8V17C22.75 17.0219 22.75 17.0435 22.75 17.0647C22.7501 17.4664 22.7502 17.7545 22.71 18.0084C22.4897 19.3991 21.3991 20.4897 20.0084 20.71C19.8458 20.7357 19.6692 20.745 19.4576 20.7482C19.3004 21.2823 19.0519 21.7514 18.6517 22.1517C18.0497 22.7536 17.2919 23.0125 16.3918 23.1335C15.5248 23.25 14.4225 23.25 13.0549 23.25H10.9451C9.57755 23.25 8.47523 23.25 7.60826 23.1335C6.70815 23.0125 5.95028 22.7536 5.34836 22.1517C4.94816 21.7514 4.69959 21.2823 4.54237 20.7482C4.33084 20.745 4.15421 20.7357 3.9916 20.71C2.60095 20.4897 1.51028 19.3991 1.29002 18.0084C1.24981 17.7545 1.24989 17.4664 1.25 17.0647C1.25 17.0435 1.25001 17.0219 1.25001 17V8C1.25001 7.9781 1.25 7.95652 1.25 7.93527C1.24989 7.53357 1.24981 7.24548 1.29002 6.99159C1.51028 5.60094 2.60095 4.51027 3.9916 4.29001C4.15421 4.26426 4.33085 4.25503 4.54237 4.25175C4.69959 3.7177 4.94816 3.24855 5.34836 2.84835C5.95028 2.24643 6.70815 1.98754 7.60826 1.86652C8.47523 1.74996 9.57755 1.74998 10.9451 1.75ZM4.30192 5.76229C4.27394 5.76483 4.24941 5.76788 4.22625 5.77155C3.47744 5.89015 2.89016 6.47743 2.77156 7.22624C2.75234 7.34758 2.75001 7.50684 2.75001 8V17C2.75001 17.4932 2.75234 17.6524 2.77156 17.7738C2.89016 18.5226 3.47744 19.1099 4.22625 19.2285C4.24941 19.2321 4.27394 19.2352 4.30192 19.2377C4.24998 18.4893 4.24999 17.5995 4.25001 16.5549V15.3166V15.3151V8.44512C4.24999 7.40052 4.24998 6.51069 4.30192 5.76229ZM5.75001 15.6209V16.5C5.75001 17.9354 5.7516 18.9365 5.85316 19.6919C5.95181 20.4257 6.13226 20.8142 6.40902 21.091C6.68578 21.3678 7.07435 21.5482 7.80813 21.6469C8.56348 21.7484 9.56459 21.75 11 21.75H13C14.4354 21.75 15.4365 21.7484 16.1919 21.6469C16.9257 21.5482 17.3142 21.3678 17.591 21.091C17.743 20.939 17.8659 20.7533 17.9622 20.4952L16.0804 18.5092C15.577 17.978 14.8816 17.9416 14.3519 18.3781L14.1322 18.5591C13.2159 19.3142 11.9548 19.1658 11.1952 18.2751L8.03434 14.5687C7.6843 14.1583 7.18509 14.1485 6.82775 14.5152L5.75001 15.6209ZM18.2292 18.5961L17.1692 17.4775C16.1406 16.392 14.5546 16.2673 13.398 17.2205L13.1783 17.4016C12.9227 17.6121 12.5897 17.5987 12.3365 17.3018L9.17566 13.5954C8.26392 12.5263 6.73914 12.457 5.75356 13.4682L5.75001 13.4719V8.5C5.75001 7.06458 5.7516 6.06347 5.85316 5.30812C5.95181 4.57435 6.13226 4.18577 6.40902 3.90901C6.68578 3.63225 7.07436 3.4518 7.80813 3.35315C8.56348 3.25159 9.56459 3.25 11 3.25H13C14.4354 3.25 15.4365 3.25159 16.1919 3.35315C16.9257 3.4518 17.3142 3.63225 17.591 3.90901C17.8678 4.18577 18.0482 4.57435 18.1469 5.30812C18.2484 6.06347 18.25 7.06458 18.25 8.5V16.5C18.25 17.3326 18.2495 18.019 18.2292 18.5961ZM19.6981 19.2377C19.7261 19.2352 19.7506 19.2321 19.7738 19.2285C20.5226 19.1099 21.1099 18.5226 21.2285 17.7738C21.2477 17.6524 21.25 17.4932 21.25 17V8C21.25 7.50684 21.2477 7.34758 21.2285 7.22624C21.1099 6.47743 20.5226 5.89015 19.7738 5.77155C19.7506 5.76788 19.7261 5.76483 19.6981 5.76229C19.75 6.51069 19.75 7.40053 19.75 8.44513V16.5549C19.75 17.5995 19.75 18.4893 19.6981 19.2377ZM14.5 6.25C14.0858 6.25 13.75 6.58579 13.75 7C13.75 7.41421 14.0858 7.75 14.5 7.75C14.9142 7.75 15.25 7.41421 15.25 7C15.25 6.58579 14.9142 6.25 14.5 6.25ZM12.25 7C12.25 5.75736 13.2574 4.75 14.5 4.75C15.7426 4.75 16.75 5.75736 16.75 7C16.75 8.24264 15.7426 9.25 14.5 9.25C13.2574 9.25 12.25 8.24264 12.25 7Z" fill="#F3F345"/>
</svg>
